<svg xmlns="http://www.w3.org/2000/svg" viewBox="0 0 64 64" fill="none">
  <circle cx="32" cy="32" r="30" stroke="#4FD1ED" stroke-width="2" opacity="0.3"/>
  <circle cx="32" cy="32" r="5" fill="#4FD1ED"/>
  <path d="M32 27 L32 8 Q32 4 28 6 L20 14" stroke="#4FD1ED" stroke-width="2.5" stroke-linecap="round" fill="none"/>
  <path d="M36.3 29.5 L52.5 19.2 Q56 17 56 21 L54 32" stroke="#4FD1ED" stroke-width="2.5" stroke-linecap="round" fill="none"/>
  <path d="M36.3 34.5 L52.5 44.8 Q56 47 53 49 L42 52" stroke="#4FD1ED" stroke-width="2.5" stroke-linecap="round" fill="none"/>
  <path d="M32 37 L32 56 Q32 60 36 58 L44 50" stroke="#4FD1ED" stroke-width="2.5" stroke-linecap="round" fill="none"/>
  <path d="M27.7 34.5 L11.5 44.8 Q8 47 8 43 L10 32" stroke="#4FD1ED" stroke-width="2.5" stroke-linecap="round" fill="none"/>
  <path d="M27.7 29.5 L11.5 19.2 Q8 17 11 15 L22 12" stroke="#4FD1ED" stroke-width="2.5" stroke-linecap="round" fill="none"/>
</svg>
